<?xml version="1.0" encoding="UTF-8" standalone="no"?>
<svg
   width="499.99918"
   height="500"
   viewBox="0 0 499.99918 500"
   fill="none"
   version="1.1"
   id="svg18"
   xmlns="http://www.w3.org/2000/svg"
   xmlns:svg="http://www.w3.org/2000/svg">
  <defs
     id="defs18">
    <linearGradient
       id="paint0_linear_24_75"
       x1="508"
       y1="622"
       x2="100"
       y2="214"
       gradientUnits="userSpaceOnUse"
       gradientTransform="matrix(1.2254884,0,0,1.22549,-122.54879,-262.25488)">
      <stop
         offset="0.0684898"
         stop-color="#22AB00"
         id="stop12" />
      <stop
         offset="0.741212"
         stop-color="#90E22B"
         id="stop13" />
    </linearGradient>
  </defs>
  <path
     d="m 499.99918,400 c 0,55.22791 -44.77193,100 -99.99972,100 H 249.99983 C 111.92872,500 0,388.07103 0,249.99999 v 0 C 0,111.92892 111.92872,0 249.99983,0 v 0 c 138.07082,0 249.99935,111.92892 249.99935,249.99999 z"
     fill="url(#paint0_linear_24_75)"
     id="path1"
     style="fill:url(#paint0_linear_24_75);stroke-width:1.22549" />
  <path
     fill-rule="evenodd"
     clip-rule="evenodd"
     d="m 371.99933,500 h -63.9998 V 372 H 173.81464 C 117.5844,372 71.999823,326.41537 71.999823,270.18506 c 0,-109.45467 88.730417,-198.185061 198.184977,-198.185061 56.23004,0 101.81453,45.584551 101.81453,101.814891 V 307.99997 H 499.99918 V 372 H 371.99933 Z M 307.99953,307.99997 V 173.81489 c 0,-20.88471 -16.93023,-37.81492 -37.81473,-37.81492 -74.10783,0 -134.18512,60.07724 -134.18512,134.18509 0,20.88484 16.93022,37.81495 37.81496,37.81495 z"
     fill="#ffffff"
     fill-opacity="0.5"
     id="path2"
     style="stroke-width:1.22549" />
  <path
     d="m 307.99953,438.00002 c 0,17.67275 14.32604,32.00003 32.00001,32.00003 v 0 c 17.6728,0 31.99979,-14.32728 31.99979,-32.00003 V 372 h 66.00003 c 17.67274,0 31.99975,-14.32727 31.99975,-32.00001 v 0 c 0,-17.67285 -14.32701,-32.00002 -31.99975,-32.00002 h -66.00003 v -65.99998 c 0,-17.67277 -14.32699,-32.00001 -31.99979,-32.00001 v 0 c -17.67397,0 -32.00001,14.32724 -32.00001,32.00001 v 65.99998 h -66.00002 c -17.67396,0 -31.99977,14.32717 -31.99977,32.00002 v 0 c 0,17.67274 14.32581,32.00001 31.99977,32.00001 h 66.00002 z"
     fill="#ffffff"
     fill-opacity="0.7"
     id="path3"
     style="stroke-width:1.22549" />
  <path
     d="m 239.19084,345.30636 c -4.08593,-2.35784 -4.08593,-8.25496 0,-10.61272 l 17.61759,-10.1716 c 4.08446,-2.35906 9.19104,0.58988 9.19104,5.30635 v 20.34321 c 0,4.71691 -5.10658,7.66537 -9.19104,5.30639 z"
     fill="#ffffff"
     id="path4"
     style="stroke-width:1.22549" />
  <path
     d="m 334.69324,239.1912 c 2.3581,-4.08453 8.25476,-4.08453 10.61379,0 l 10.17158,17.61759 c 2.35808,4.08454 -0.59012,9.1912 -5.30772,9.1912 h -20.3429 c -4.71688,0 -7.66439,-5.10666 -5.30629,-9.1912 z"
     fill="#ffffff"
     id="path5"
     style="stroke-width:1.22549" />
  <path
     d="m 345.30703,440.80881 c -2.35806,4.08452 -8.25474,4.08452 -10.61379,0 L 324.5217,423.19123 c -2.3581,-4.08469 0.58771,-9.19125 5.30629,-9.19125 h 20.3429 c 4.71712,0 7.66556,5.10656 5.30772,9.19125 z"
     fill="#ffffff"
     id="path6"
     style="stroke-width:1.22549" />
  <path
     d="m 440.80826,334.69364 c 4.08566,2.35785 4.08566,8.25488 0,10.61272 l -17.61781,10.17163 c -4.0845,2.35904 -9.19105,-0.58988 -9.19105,-5.30639 v -20.34321 c 0,-4.71689 5.10655,-7.66535 9.19105,-5.30635 z"
     fill="#ffffff"
     id="path7"
     style="stroke-width:1.22549" />
</svg>
