<?xml version="1.0" encoding="UTF-8" standalone="no"?>
<svg
   width="70.668671"
   height="22"
   viewBox="0 0 70.668671 22"
   fill="none"
   version="1.1"
   id="svg18"
   xmlns="http://www.w3.org/2000/svg"
   xmlns:svg="http://www.w3.org/2000/svg">
  <defs
     id="defs18">
    <linearGradient
       id="paint0_linear_24_75"
       x1="508"
       y1="622"
       x2="100"
       y2="214"
       gradientUnits="userSpaceOnUse"
       gradientTransform="matrix(0.05129393,0,0,0.051294,-5.1293907,-10.976917)">
      <stop
         offset="0.0684898"
         stop-color="#22AB00"
         id="stop12" />
      <stop
         offset="0.741212"
         stop-color="#90E22B"
         id="stop13" />
    </linearGradient>
  </defs>
  <path
     d="m 20.92792,16.742364 c 0,2.311614 -1.87397,4.185591 -4.18558,4.185591 H 10.46397 C 4.6848783,20.927955 3.7443178e-7,16.243066 3.7443178e-7,10.463977 v 0 C 3.7443178e-7,4.6848865 4.6848783,0 10.46397,0 v 0 c 5.77908,0 10.46395,4.6848865 10.46395,10.463977 z"
     fill="url(#paint0_linear_24_75)"
     id="path1"
     style="fill:url(#paint0_linear_24_75);stroke-width:0.0512944" />
  <path
     fill-rule="evenodd"
     clip-rule="evenodd"
     d="M 15.57037,20.927955 H 12.8916 V 15.570398 H 7.2751703 c -2.353568,0 -4.261552,-1.907986 -4.261552,-4.261557 0,-4.5813247 3.713892,-8.2952156 8.2952117,-8.2952156 2.35356,0 4.26154,1.9079828 4.26154,4.2615548 v 5.6164388 h 5.35755 v 2.678779 H 15.57037 Z M 12.8916,12.891619 V 7.2751802 c 0,-0.8741488 -0.70863,-1.5827779 -1.58277,-1.5827779 -3.1018497,0 -5.6164397,2.514588 -5.6164397,5.6164387 0,0.874154 0.70863,1.582779 1.58278,1.582779 z"
     fill="#ffffff"
     fill-opacity="0.5"
     id="path2"
     style="stroke-width:0.0512944" />
  <path
     d="m 12.8916,18.332889 c 0,0.739709 0.59963,1.33939 1.33939,1.33939 v 0 c 0.73971,0 1.33938,-0.599681 1.33938,-1.33939 v -2.762491 h 2.76249 c 0.73971,0 1.33938,-0.599681 1.33938,-1.339389 v 0 c 0,-0.739713 -0.59967,-1.33939 -1.33938,-1.33939 H 15.57037 V 10.12913 c 0,-0.7397099 -0.59967,-1.3393901 -1.33938,-1.3393901 v 0 c -0.73976,0 -1.33939,0.5996802 -1.33939,1.3393901 v 2.762489 h -2.76249 c -0.7397597,0 -1.3393797,0.599677 -1.3393797,1.33939 v 0 c 0,0.739708 0.59962,1.339389 1.3393797,1.339389 h 2.76249 z"
     fill="#ffffff"
     fill-opacity="0.7"
     id="path3"
     style="stroke-width:0.0512944" />
  <path
     d="m 10.01155,14.453111 c -0.1710197,-0.09869 -0.1710197,-0.345519 0,-0.444205 l 0.7374,-0.425742 c 0.17096,-0.09874 0.3847,0.02469 0.3847,0.222103 v 0.851483 c 0,0.197431 -0.21374,0.320842 -0.3847,0.222104 z"
     fill="#ffffff"
     id="path4"
     style="stroke-width:0.0512944" />
  <path
     d="m 14.00889,10.011565 c 0.0987,-0.1709615 0.34551,-0.1709615 0.44425,0 l 0.42574,0.7374 c 0.0987,0.170963 -0.0247,0.384707 -0.22216,0.384707 h -0.85147 c -0.19743,0 -0.3208,-0.213744 -0.2221,-0.384707 z"
     fill="#ffffff"
     id="path5"
     style="stroke-width:0.0512944" />
  <path
     d="m 14.45314,18.450454 c -0.0987,0.170961 -0.34551,0.170961 -0.44425,0 l -0.42574,-0.737401 c -0.0987,-0.170967 0.0246,-0.384707 0.2221,-0.384707 h 0.85147 c 0.19744,0 0.32085,0.21374 0.22216,0.384707 z"
     fill="#ffffff"
     id="path6"
     style="stroke-width:0.0512944" />
  <path
     d="m 18.45043,14.008906 c 0.17101,0.09869 0.17101,0.345515 0,0.444205 l -0.73741,0.425743 c -0.17096,0.09874 -0.3847,-0.02469 -0.3847,-0.222104 v -0.851483 c 0,-0.19743 0.21374,-0.32084 0.3847,-0.222103 z"
     fill="#ffffff"
     id="path7"
     style="stroke-width:0.0512944" />
  <path
     d="M 27.98956,21.655561 V 19.66997 h 5.18685 c 0.35115,0 0.62132,-0.108075 0.81043,-0.324181 0.20262,-0.2161 0.30392,-0.486268 0.30392,-0.810443 v -2.67447 h -0.0203 c -0.2972,0.364698 -0.61461,0.682109 -0.95228,0.952272 -0.33772,0.256626 -0.72268,0.459239 -1.15488,0.607835 -0.41877,0.135057 -0.88477,0.202612 -1.39802,0.202612 -0.94555,0 -1.78974,-0.222876 -2.53264,-0.668621 -0.74294,-0.44574 -1.33051,-1.067065 -1.76272,-1.86402 -0.41876,-0.81045 -0.62808,-1.735686 -0.62808,-2.775775 0,-1.013055 0.20932,-1.91804 0.62808,-2.7149912 0.43221,-0.8104479 1.04682,-1.4520316 1.84376,-1.9248103 0.7969,-0.4727739 1.76945,-0.7091373 2.91761,-0.7091373 1.0941,0 2.0396,0.2296404 2.83655,0.6888791 0.81045,0.4592338 1.43854,1.1075866 1.88428,1.9450685 0.44575,0.8239312 0.66862,1.7897482 0.66862,2.8973402 v 6.139124 c 0,0.932012 -0.27017,1.668183 -0.81044,2.20846 -0.54034,0.540281 -1.27645,0.810449 -2.20846,0.810449 z m 3.22151,-6.01756 c 0.62133,0 1.15488,-0.141828 1.60063,-0.425482 0.45923,-0.297144 0.81045,-0.68888 1.05358,-1.175147 0.25663,-0.499755 0.38496,-1.053577 0.38496,-1.661409 0,-0.648358 -0.12157,-1.229161 -0.3647,-1.742461 -0.24313,-0.513296 -0.59434,-0.91852 -1.05357,-1.2156676 -0.44575,-0.3106886 -0.98608,-0.4660042 -1.6209,-0.4660042 -0.62137,0 -1.16165,0.1553156 -1.62089,0.4660042 -0.44574,0.2971476 -0.79017,0.7023716 -1.03331,1.2156676 -0.24314,0.49976 -0.3647,1.06707 -0.3647,1.701935 0,0.607837 0.12156,1.161659 0.3647,1.661413 0.24314,0.49976 0.58757,0.898261 1.03331,1.19541 0.45924,0.297143 0.99952,0.445741 1.62089,0.445741 z"
     fill="#ffffff"
     id="path8"
     style="stroke-width:0.0512944" />
  <path
     d="M 38.31703,17.542548 V 2.7519233 h 2.33002 V 17.542548 Z"
     fill="#ffffff"
     id="path9"
     style="stroke-width:0.0512944" />
  <path
     d="m 47.35199,17.785681 c -1.06691,0 -2.01256,-0.236363 -2.8365,-0.709137 -0.82394,-0.486268 -1.47906,-1.134626 -1.96533,-1.94507 -0.47278,-0.823936 -0.70914,-1.742455 -0.70914,-2.755511 0,-1.013061 0.23636,-1.92481 0.70914,-2.7352537 0.48627,-0.8239363 1.14139,-1.4722939 1.96533,-1.9450685 0.82394,-0.486267 1.76959,-0.7294006 2.8365,-0.7294006 1.05358,0 1.99225,0.2431336 2.81655,0.7294006 0.82378,0.4727738 1.47214,1.1143621 1.94507,1.9248054 0.48626,0.8104488 0.72939,1.7289688 0.72939,2.7555168 0,1.013056 -0.24313,1.931575 -0.72939,2.755511 -0.47293,0.810444 -1.12129,1.458802 -1.94507,1.94507 -0.8243,0.472774 -1.76297,0.709137 -2.81655,0.709137 z m 0,-1.985591 c 0.63502,0 1.18848,-0.148596 1.66142,-0.445745 0.47292,-0.310688 0.83762,-0.72263 1.0941,-1.235926 0.25646,-0.513301 0.38521,-1.094102 0.38521,-1.742456 0,-0.634869 -0.12875,-1.208898 -0.38521,-1.722197 -0.25648,-0.52679 -0.62118,-0.938784 -1.0941,-1.2359316 -0.47294,-0.3106886 -1.0264,-0.4660042 -1.66142,-0.4660042 -0.64836,0 -1.20884,0.1553156 -1.68162,0.4660042 -0.45923,0.2971476 -0.82394,0.7023716 -1.09409,1.2156676 -0.25663,0.5133 -0.38497,1.094103 -0.38497,1.742461 0,0.634865 0.12834,1.215668 0.38497,1.742456 0.27015,0.513296 0.63486,0.925238 1.09409,1.235926 0.47278,0.297149 1.03326,0.445745 1.68162,0.445745 z"
     fill="#ffffff"
     id="path10"
     style="stroke-width:0.0512944" />
  <path
     d="m 53.95814,17.542548 v -7.395313 c 0,-0.9185194 0.25646,-1.6343805 0.76992,-2.1476809 0.52679,-0.5267886 1.24952,-0.7901803 2.16768,-0.7901803 h 2.49237 v 1.9855897 h -2.06663 c -0.32418,0 -0.58064,0.094537 -0.76992,0.2836554 -0.17543,0.1891188 -0.26365,0.4457458 -0.26365,0.7699221 v 7.294007 z"
     fill="#ffffff"
     id="path11"
     style="stroke-width:0.0512944" />
  <path
     d="m 65.27922,6.9662402 c 0.83712,0 1.58703,0.1350575 2.24873,0.4052194 0.66169,0.2566267 1.22233,0.6348693 1.68193,1.1346248 0.47241,0.4997555 0.83044,1.0941034 1.07357,1.7829776 0.25647,0.675392 0.38522,1.42505 0.38522,2.248988 0,1.040087 -0.21645,1.95856 -0.64836,2.755516 -0.41906,0.78341 -1.00637,1.398016 -1.76296,1.843763 -0.74274,0.432252 -1.60756,0.648352 -2.59342,0.648352 -0.48627,0 -0.94535,-0.07427 -1.37776,-0.22287 -0.43241,-0.148598 -0.82378,-0.357928 -1.17514,-0.628094 -0.35137,-0.270168 -0.63502,-0.587574 -0.85097,-0.952276 h -0.02 V 22 h -2.33028 v -9.502472 c 0,-1.148113 0.22313,-2.134188 0.66886,-2.9581246 0.45908,-0.8239363 1.0941,-1.4588017 1.90455,-1.9045471 0.81044,-0.4457454 1.74245,-0.6686155 2.79603,-0.6686161 z m 0,1.98559 c -0.58116,0 -1.10128,0.1485974 -1.56036,0.4457458 -0.45908,0.2836547 -0.81711,0.682104 -1.07358,1.195405 -0.25699,0.5133 -0.38522,1.107591 -0.38522,1.782982 0,0.661847 0.12823,1.256188 0.38522,1.782978 0.25647,0.513301 0.6145,0.918519 1.07358,1.215668 0.45908,0.283655 0.98586,0.425481 1.58036,0.425481 0.59451,0 1.11462,-0.148596 1.56037,-0.445745 0.45907,-0.297143 0.81711,-0.702367 1.07358,-1.215667 0.25647,-0.513296 0.38521,-1.100868 0.38521,-1.762714 0,-0.675391 -0.12874,-1.269683 -0.38521,-1.782983 C 67.6767,10.079681 67.31866,9.6812315 66.85959,9.3975768 66.4,9.1004284 65.87321,8.951831 65.27922,8.9518302 Z"
     fill="#ffffff"
     id="path12"
     style="stroke-width:0.0512944" />
</svg>
