<?xml version="1.0" encoding="UTF-8" standalone="no"?>
<svg
   width="600"
   height="600"
   viewBox="0 0 600 600"
   fill="none"
   version="1.1"
   id="svg6"
   xmlns="http://www.w3.org/2000/svg"
   xmlns:svg="http://www.w3.org/2000/svg">
  <defs
     id="defs6" />
  <path
     fill-rule="evenodd"
     clip-rule="evenodd"
     d="m 450,550 c 55.2285,0 100,-44.7715 100,-100 V 358 300 C 550,161.929 438.071,50 300,50 161.929,50 50,161.929 50,300 50,438.071 161.929,550 300,550 h 58 V 422 H 223.815 C 167.584,422 122,376.416 122,320.185 122,210.731 210.73,122 320.185,122 376.416,122 422,167.584 422,223.815 V 358 h 128 v 64 H 422 V 550 Z M 358,223.815 V 358 H 223.815 C 202.93,358 186,341.07 186,320.185 186,246.077 246.077,186 320.185,186 341.07,186 358,202.93 358,223.815 Z"
     fill="#ffffff"
     id="path1" />
  <path
     d="m 422,535 h 15 v -15 -83 h 83 15 v -15 -64 -15 h -15 -83 v -83 -15 h -15 -64 -15 v 15 83 h -83 -15 v 15 64 15 h 15 83 v 83 15 h 15 z"
     stroke="#ffffff"
     stroke-width="30"
     id="path2" />
  <path
     d="m 287.5,394.33 c -3.333,-1.924 -3.333,-6.736 0,-8.66 l 21,-12.124 c 3.333,-1.925 7.5,0.481 7.5,4.33 v 24.248 c 0,3.849 -4.167,6.255 -7.5,4.33 z"
     fill="#ffffff"
     id="path3" />
  <path
     d="m 385.67,287.5 c 1.924,-3.333 6.736,-3.333 8.66,0 l 12.124,21 c 1.925,3.333 -0.481,7.5 -4.33,7.5 h -24.248 c -3.849,0 -6.255,-4.167 -4.33,-7.5 z"
     fill="#ffffff"
     id="path4" />
  <path
     d="m 394.33,492.5 c -1.924,3.333 -6.736,3.333 -8.66,0 l -12.124,-21 c -1.925,-3.333 0.481,-7.5 4.33,-7.5 h 24.248 c 3.849,0 6.255,4.167 4.33,7.5 z"
     fill="#ffffff"
     id="path5" />
  <path
     d="m 492.5,385.67 c 3.333,1.924 3.333,6.736 0,8.66 l -21,12.124 c -3.333,1.925 -7.5,-0.481 -7.5,-4.33 v -24.248 c 0,-3.849 4.167,-6.255 7.5,-4.33 z"
     fill="#ffffff"
     id="path6" />
</svg>
