<?xml version="1.0" encoding="UTF-8" standalone="no"?>
<svg
   width="600"
   height="600"
   viewBox="0 0 600 600"
   fill="none"
   version="1.1"
   id="svg18"
   sodipodi:docname="glorp_icon.svg"
   inkscape:version="1.4.3 (0d15f75042, 2025-12-25)"
   xmlns:inkscape="http://www.inkscape.org/namespaces/inkscape"
   xmlns:sodipodi="http://sodipodi.sourceforge.net/DTD/sodipodi-0.dtd"
   xmlns="http://www.w3.org/2000/svg"
   xmlns:svg="http://www.w3.org/2000/svg">
  <sodipodi:namedview
     id="namedview1"
     pagecolor="#ffffff"
     bordercolor="#000000"
     borderopacity="0.25"
     inkscape:showpageshadow="2"
     inkscape:pageopacity="0.0"
     inkscape:pagecheckerboard="0"
     inkscape:deskcolor="#d1d1d1"
     inkscape:zoom="0.35027244"
     inkscape:cx="518.16809"
     inkscape:cy="558.13697"
     inkscape:window-width="2560"
     inkscape:window-height="1368"
     inkscape:window-x="0"
     inkscape:window-y="0"
     inkscape:window-maximized="1"
     inkscape:current-layer="svg18">
    <inkscape:page
       x="0"
       y="0"
       width="600"
       height="600"
       id="page2"
       margin="0"
       bleed="0" />
  </sodipodi:namedview>
  <defs
     id="defs18">
    <linearGradient
       id="paint0_linear_24_75"
       x1="508"
       y1="622"
       x2="100"
       y2="214"
       gradientUnits="userSpaceOnUse"
       gradientTransform="matrix(1.2254902,0,0,1.2254902,-72.54902,-212.2549)">
      <stop
         offset="0.0684898"
         stop-color="#22AB00"
         id="stop12" />
      <stop
         offset="0.741212"
         stop-color="#90E22B"
         id="stop13" />
    </linearGradient>
  </defs>
  <path
     d="m 550,450 c 0,55.22794 -44.77206,100 -100,100 H 300 C 161.92892,550 50,438.07108 50,300 v 0 C 50,161.92892 161.92892,50 300,50 v 0 c 138.07108,0 250,111.92892 250,250 z"
     fill="url(#paint0_linear_24_75)"
     id="path1"
     style="fill:url(#paint0_linear_24_75);stroke-width:1.22549" />
  <path
     fill-rule="evenodd"
     clip-rule="evenodd"
     d="M 422,550 H 357.99999 V 422 H 223.81494 C 167.58455,422 121.99999,376.41544 121.99999,320.18505 121.99999,210.73039 210.73038,122 320.18504,122 c 56.23039,0 101.81495,45.58456 101.81495,101.81495 V 358 h 128 v 64 h -128 z M 357.99999,358 V 223.81495 C 357.99999,202.93015 341.06984,186 320.18504,186 c -74.10783,0 -134.18505,60.07721 -134.18505,134.18505 0,20.8848 16.93014,37.81495 37.81495,37.81495 z"
     fill="#ffffff"
     fill-opacity="0.5"
     id="path2"
     style="stroke-width:1.22549" />
  <path
     d="m 358,488 c 0,17.67279 14.32598,32 32,32 v 0 c 17.67279,0 32,-14.32721 32,-32 v -66 h 66 c 17.67279,0 31.99999,-14.32721 31.99999,-32 v 0 c 0,-17.67279 -14.32721,-32 -31.99999,-32 h -66 v -66 c 0,-17.67279 -14.32722,-32 -32,-32 v 0 c -17.67402,0 -32,14.32721 -32,32 v 66 h -66 c -17.67402,0 -32,14.32721 -32,32 v 0 c 0,17.67279 14.32598,32 32,32 h 66 z"
     fill="#ffffff"
     fill-opacity="0.7"
     id="path3"
     style="stroke-width:1.22549" />
  <path
     d="m 289.19118,395.30637 c -4.08579,-2.35784 -4.08579,-8.2549 0,-10.61274 l 17.61764,-10.17157 C 310.89338,372.16299 316,375.11152 316,379.82843 v 20.34314 c 0,4.71691 -5.10662,7.66544 -9.19118,5.30637 z"
     fill="#ffffff"
     id="path4"
     style="stroke-width:1.22549" />
  <path
     d="m 384.69363,289.19118 c 2.35905,-4.08456 8.25489,-4.08456 10.61396,0 l 10.17156,17.61764 C 407.837,310.89338 404.88847,316 400.17156,316 h -20.34314 c -4.71691,0 -7.66422,-5.10662 -5.30637,-9.19118 z"
     fill="#ffffff"
     id="path5"
     style="stroke-width:1.22549" />
  <path
     d="m 395.3076,490.80882 c -2.35907,4.08456 -8.2549,4.08456 -10.61397,0 L 374.52206,473.19118 C 372.16422,469.10662 375.11152,464 379.82843,464 h 20.34314 c 4.71691,0 7.66544,5.10662 5.3076,9.19118 z"
     fill="#ffffff"
     id="path6"
     style="stroke-width:1.22549" />
  <path
     d="m 490.80882,384.69363 c 4.08578,2.35784 4.08578,8.2549 0,10.61274 l -17.61764,10.17157 C 469.10662,407.83701 464,404.88848 464,400.17157 v -20.34314 c 0,-4.71691 5.10662,-7.66544 9.19118,-5.30637 z"
     fill="#ffffff"
     id="path7"
     style="stroke-width:1.22549" />
</svg>
